<mxfile host="Electron" modified="2024-05-19T00:01:14.429Z" agent="Mozilla/5.0 (Macintosh; Intel Mac OS X 10_15_7) AppleWebKit/537.36 (KHTML, like Gecko) draw.io/22.1.16 Chrome/120.0.6099.109 Electron/28.1.0 Safari/537.36" etag="iqCLOiPTrN3-UZrwJ0-4" version="22.1.16" type="device">
  <diagram name="페이지-1" id="-jjKGd0FmQesz-Gqz576">
    <mxGraphModel dx="1953" dy="1051" grid="1" gridSize="10" guides="1" tooltips="1" connect="1" arrows="1" fold="1" page="1" pageScale="1" pageWidth="827" pageHeight="1169" math="0" shadow="0">
      <root>
        <mxCell id="0" />
        <mxCell id="1" parent="0" />
        <mxCell id="_y3rIwZ3CHS-O0FPDjIp-2" value="int&amp;nbsp;distributeCoins" style="swimlane;whiteSpace=wrap;html=1;" vertex="1" parent="1">
          <mxGeometry x="34" y="260" width="760" height="870" as="geometry" />
        </mxCell>
        <mxCell id="_y3rIwZ3CHS-O0FPDjIp-3" value="left =&amp;nbsp;distributeCoins(root -&amp;gt; left)&amp;nbsp;" style="rounded=0;whiteSpace=wrap;html=1;" vertex="1" parent="_y3rIwZ3CHS-O0FPDjIp-2">
          <mxGeometry x="180" y="190" width="220" height="60" as="geometry" />
        </mxCell>
        <mxCell id="_y3rIwZ3CHS-O0FPDjIp-12" value="" style="edgeStyle=orthogonalEdgeStyle;rounded=0;orthogonalLoop=1;jettySize=auto;html=1;" edge="1" parent="_y3rIwZ3CHS-O0FPDjIp-2" source="_y3rIwZ3CHS-O0FPDjIp-6" target="_y3rIwZ3CHS-O0FPDjIp-3">
          <mxGeometry relative="1" as="geometry" />
        </mxCell>
        <mxCell id="_y3rIwZ3CHS-O0FPDjIp-14" value="" style="edgeStyle=orthogonalEdgeStyle;rounded=0;orthogonalLoop=1;jettySize=auto;html=1;" edge="1" parent="_y3rIwZ3CHS-O0FPDjIp-2" source="_y3rIwZ3CHS-O0FPDjIp-6" target="_y3rIwZ3CHS-O0FPDjIp-13">
          <mxGeometry relative="1" as="geometry" />
        </mxCell>
        <mxCell id="_y3rIwZ3CHS-O0FPDjIp-6" value="root -&amp;gt; left" style="rhombus;whiteSpace=wrap;html=1;" vertex="1" parent="_y3rIwZ3CHS-O0FPDjIp-2">
          <mxGeometry x="217.5" y="90" width="145" height="80" as="geometry" />
        </mxCell>
        <mxCell id="_y3rIwZ3CHS-O0FPDjIp-22" value="" style="edgeStyle=orthogonalEdgeStyle;rounded=0;orthogonalLoop=1;jettySize=auto;html=1;" edge="1" parent="_y3rIwZ3CHS-O0FPDjIp-2" source="_y3rIwZ3CHS-O0FPDjIp-7" target="_y3rIwZ3CHS-O0FPDjIp-9">
          <mxGeometry relative="1" as="geometry" />
        </mxCell>
        <mxCell id="_y3rIwZ3CHS-O0FPDjIp-7" value="root -&amp;gt; right" style="rhombus;whiteSpace=wrap;html=1;" vertex="1" parent="_y3rIwZ3CHS-O0FPDjIp-2">
          <mxGeometry x="558.5" y="90" width="145" height="80" as="geometry" />
        </mxCell>
        <mxCell id="_y3rIwZ3CHS-O0FPDjIp-9" value="right =&amp;nbsp;distributeCoins(root -&amp;gt; riggt)&amp;nbsp;" style="rounded=0;whiteSpace=wrap;html=1;" vertex="1" parent="_y3rIwZ3CHS-O0FPDjIp-2">
          <mxGeometry x="521" y="190" width="220" height="60" as="geometry" />
        </mxCell>
        <mxCell id="_y3rIwZ3CHS-O0FPDjIp-21" value="" style="edgeStyle=orthogonalEdgeStyle;rounded=0;orthogonalLoop=1;jettySize=auto;html=1;" edge="1" parent="_y3rIwZ3CHS-O0FPDjIp-2" source="_y3rIwZ3CHS-O0FPDjIp-13" target="_y3rIwZ3CHS-O0FPDjIp-7">
          <mxGeometry relative="1" as="geometry" />
        </mxCell>
        <mxCell id="_y3rIwZ3CHS-O0FPDjIp-13" value=";" style="rounded=0;whiteSpace=wrap;html=1;" vertex="1" parent="_y3rIwZ3CHS-O0FPDjIp-2">
          <mxGeometry x="406" y="100" width="120" height="60" as="geometry" />
        </mxCell>
        <mxCell id="_y3rIwZ3CHS-O0FPDjIp-16" style="edgeStyle=orthogonalEdgeStyle;rounded=0;orthogonalLoop=1;jettySize=auto;html=1;entryX=0.317;entryY=1.033;entryDx=0;entryDy=0;entryPerimeter=0;" edge="1" parent="_y3rIwZ3CHS-O0FPDjIp-2" source="_y3rIwZ3CHS-O0FPDjIp-3" target="_y3rIwZ3CHS-O0FPDjIp-13">
          <mxGeometry relative="1" as="geometry" />
        </mxCell>
        <mxCell id="_y3rIwZ3CHS-O0FPDjIp-1" value="Int left&lt;br&gt;int right&lt;br&gt;int tmp" style="rounded=0;whiteSpace=wrap;html=1;shape=ellipse;perimeter=ellipsePerimeter;" vertex="1" parent="_y3rIwZ3CHS-O0FPDjIp-2">
          <mxGeometry x="16" y="40" width="120" height="60" as="geometry" />
        </mxCell>
        <mxCell id="_y3rIwZ3CHS-O0FPDjIp-30" value="tmp = left + right" style="whiteSpace=wrap;html=1;" vertex="1" parent="_y3rIwZ3CHS-O0FPDjIp-2">
          <mxGeometry x="319" y="530" width="120" height="60" as="geometry" />
        </mxCell>
        <mxCell id="_y3rIwZ3CHS-O0FPDjIp-41" value="" style="edgeStyle=orthogonalEdgeStyle;rounded=0;orthogonalLoop=1;jettySize=auto;html=1;" edge="1" parent="_y3rIwZ3CHS-O0FPDjIp-2" source="_y3rIwZ3CHS-O0FPDjIp-32" target="_y3rIwZ3CHS-O0FPDjIp-30">
          <mxGeometry relative="1" as="geometry" />
        </mxCell>
        <mxCell id="_y3rIwZ3CHS-O0FPDjIp-32" value="" style="group" vertex="1" connectable="0" parent="_y3rIwZ3CHS-O0FPDjIp-2">
          <mxGeometry x="153" y="280" width="454" height="210" as="geometry" />
        </mxCell>
        <mxCell id="_y3rIwZ3CHS-O0FPDjIp-31" value="" style="rounded=0;whiteSpace=wrap;html=1;" vertex="1" parent="_y3rIwZ3CHS-O0FPDjIp-32">
          <mxGeometry width="454" height="210" as="geometry" />
        </mxCell>
        <mxCell id="_y3rIwZ3CHS-O0FPDjIp-23" value="left와 right의 부호가 같은가?" style="rhombus;whiteSpace=wrap;html=1;" vertex="1" parent="_y3rIwZ3CHS-O0FPDjIp-32">
          <mxGeometry x="49" y="10" width="164" height="80" as="geometry" />
        </mxCell>
        <mxCell id="_y3rIwZ3CHS-O0FPDjIp-24" value="ans += abs(left + right)" style="rounded=0;whiteSpace=wrap;html=1;" vertex="1" parent="_y3rIwZ3CHS-O0FPDjIp-32">
          <mxGeometry x="44" y="125" width="174" height="60" as="geometry" />
        </mxCell>
        <mxCell id="_y3rIwZ3CHS-O0FPDjIp-27" value="ans += max(abs(left), abs(right))" style="rounded=0;whiteSpace=wrap;html=1;" vertex="1" parent="_y3rIwZ3CHS-O0FPDjIp-32">
          <mxGeometry x="249" y="20" width="174" height="60" as="geometry" />
        </mxCell>
        <mxCell id="_y3rIwZ3CHS-O0FPDjIp-25" value="yes" style="edgeStyle=orthogonalEdgeStyle;rounded=0;orthogonalLoop=1;jettySize=auto;html=1;" edge="1" parent="_y3rIwZ3CHS-O0FPDjIp-32" source="_y3rIwZ3CHS-O0FPDjIp-23" target="_y3rIwZ3CHS-O0FPDjIp-24">
          <mxGeometry x="-0.0055" relative="1" as="geometry">
            <mxPoint as="offset" />
          </mxGeometry>
        </mxCell>
        <mxCell id="_y3rIwZ3CHS-O0FPDjIp-28" value="no" style="edgeStyle=orthogonalEdgeStyle;rounded=0;orthogonalLoop=1;jettySize=auto;html=1;" edge="1" parent="_y3rIwZ3CHS-O0FPDjIp-32" source="_y3rIwZ3CHS-O0FPDjIp-23" target="_y3rIwZ3CHS-O0FPDjIp-27">
          <mxGeometry relative="1" as="geometry" />
        </mxCell>
        <mxCell id="_y3rIwZ3CHS-O0FPDjIp-42" value="val이 0인가?" style="rhombus;whiteSpace=wrap;html=1;" vertex="1" parent="_y3rIwZ3CHS-O0FPDjIp-2">
          <mxGeometry x="263.75" y="610" width="236.25" height="80" as="geometry" />
        </mxCell>
        <mxCell id="_y3rIwZ3CHS-O0FPDjIp-43" value="tmp--" style="whiteSpace=wrap;html=1;" vertex="1" parent="_y3rIwZ3CHS-O0FPDjIp-2">
          <mxGeometry x="320" y="700" width="120" height="60" as="geometry" />
        </mxCell>
        <mxCell id="_y3rIwZ3CHS-O0FPDjIp-44" value="return tmp" style="whiteSpace=wrap;html=1;" vertex="1" parent="_y3rIwZ3CHS-O0FPDjIp-2">
          <mxGeometry x="321.88" y="780" width="120" height="60" as="geometry" />
        </mxCell>
        <mxCell id="_y3rIwZ3CHS-O0FPDjIp-45" value="우리가 부족하고 즉 밖에서 들어와야하고 내가 0일경우" style="whiteSpace=wrap;html=1;" vertex="1" parent="_y3rIwZ3CHS-O0FPDjIp-2">
          <mxGeometry x="466" y="700" width="120" height="60" as="geometry" />
        </mxCell>
      </root>
    </mxGraphModel>
  </diagram>
</mxfile>
